<svg width="38" height="16" viewBox="0 0 38 16" fill="none" xmlns="http://www.w3.org/2000/svg">
<path d="M37.9015 1.76033C37.7051 1.4107 36.9705 1.15928 35.8941 1.01393C35.0142 0.892154 33.8239 0.793943 32.4921 0.731089C28.3202 0.534669 22.7026 0.731089 20.7462 1.76819H20.7109C20.1753 2.05604 19.6049 2.27397 19.0138 2.41637C18.4146 2.27583 17.8362 2.05791 17.2931 1.76819C15.3643 0.699662 9.70741 0.515027 5.50795 0.711447C4.17622 0.774302 2.98592 0.872511 2.10596 0.994292C1.02958 1.14357 0.294965 1.38713 0.0985455 1.74462C0.0301913 1.86404 -0.00378935 1.99996 0.00033547 2.13746L0.106402 4.33736C0.141758 5.12304 0.609237 5.19768 1.21814 5.28017C1.50884 5.31946 1.92525 5.37446 2.00382 6.17585C2.03132 6.56869 2.03525 7.03617 2.00382 7.59007C1.97239 8.14398 1.95668 8.83145 1.90954 9.63677C1.90954 9.76768 1.90954 9.90655 1.90954 10.0532C1.8842 11.665 2.71162 13.1704 4.08587 14.013C5.33117 14.8223 6.99289 15.2308 8.7646 15.3329C9.12601 15.3526 9.50706 15.3604 9.8999 15.3565C12.3434 15.3251 14.2408 14.6219 15.7296 13.3923C17.2185 12.1627 18.2635 10.5364 19.0138 8.54467V8.54074C19.8388 10.5049 20.8759 12.1824 22.3215 13.3845C23.7672 14.5865 25.6449 15.3212 28.0884 15.3487C28.4812 15.3487 28.8741 15.3487 29.2237 15.3251C30.9954 15.223 32.6611 14.8144 33.9024 14.0051C35.2821 13.1658 36.1157 11.6601 36.0945 10.0453C36.0945 9.89997 36.0945 9.75855 36.0945 9.62891C36.0473 8.82359 36.012 8.14005 36.0002 7.58221C35.9884 7.02438 36.0002 6.56083 36.0002 6.17192C36.0591 5.38624 36.4755 5.3116 36.7859 5.27625C37.3948 5.19375 37.8623 5.13482 37.8976 4.33343L37.9997 2.15317C38.0037 2.01577 37.9697 1.87985 37.9015 1.76033ZM9.93526 12.3434C7.41715 12.3749 5.24475 11.5224 5.22118 9.11822L5.16618 4.34521C5.16618 4.04666 15.9771 2.03139 15.8986 6.65119C15.0854 9.9314 13.4669 12.3002 9.93526 12.3434ZM28.0923 12.3356C24.5568 12.2924 22.9461 9.92747 22.129 6.64726C22.051 2.06763 32.6904 4.01513 32.8575 4.33756L32.8064 9.11036C32.7828 11.5145 30.6065 12.367 28.0923 12.3356Z" fill="white"/>
</svg>
