<svg width="21" height="19" viewBox="0 0 21 19" fill="none" xmlns="http://www.w3.org/2000/svg">
<path d="M19.3964 10.8671V9.14597C19.3964 6.76965 18.471 4.5356 16.7907 2.85531C15.1104 1.17498 12.8763 0.249586 10.5 0.249586C8.12369 0.249586 5.88965 1.17498 4.20932 2.85531C2.52903 4.5356 1.60363 6.76969 1.60363 9.14597V10.8671C0.710884 10.9178 0 11.6599 0 12.5652V15.2301C0 16.1681 0.763097 16.9312 1.70104 16.9312H2.68444C2.75441 17.946 3.60179 18.7504 4.63404 18.7504C5.71193 18.7504 6.58889 17.8735 6.58889 16.7956V10.9998C6.58889 9.92191 5.71193 9.04495 4.63404 9.04495C4.43605 9.04495 4.245 9.07477 4.06478 9.12973C4.0736 5.58868 6.95696 2.71053 10.5 2.71053C14.0431 2.71053 16.9264 5.58868 16.9352 9.12973C16.755 9.07477 16.5639 9.04495 16.366 9.04495C15.2881 9.04495 14.4111 9.92191 14.4111 10.9998V16.7955C14.4111 17.8734 15.2881 18.7504 16.366 18.7504C17.3982 18.7504 18.2456 17.946 18.3156 16.9312H19.299C20.2369 16.9312 21 16.1681 21 15.2301V12.5651C21 11.6599 20.2892 10.9178 19.3964 10.8671Z" fill="#0A3D62"/>
</svg>
