<svg width="30" height="28" viewBox="0 0 30 28" fill="none" xmlns="http://www.w3.org/2000/svg">
<path d="M27.7091 15.953V13.4943C27.7091 10.0995 26.3871 6.90801 23.9867 4.50759C21.5863 2.10712 18.3948 0.785126 15 0.785126C11.6053 0.785126 8.41379 2.10712 6.01331 4.50759C3.6129 6.90801 2.2909 10.0996 2.2909 13.4943V15.953C1.01555 16.0254 0 17.0856 0 18.3788V22.1859C0 23.5258 1.09014 24.616 2.43006 24.616H3.83491C3.93487 26.0657 5.14542 27.2149 6.62005 27.2149C8.1599 27.2149 9.41269 25.9621 9.41269 24.4222V16.1426C9.41269 14.6027 8.1599 13.3499 6.62005 13.3499C6.33722 13.3499 6.06429 13.3925 5.80683 13.471C5.81943 8.41241 9.93852 4.30076 15 4.30076C20.0615 4.30076 24.1806 8.41241 24.1932 13.471C23.9357 13.3925 23.6627 13.3499 23.3799 13.3499C21.8401 13.3499 20.5873 14.6027 20.5873 16.1426V24.4222C20.5873 25.962 21.8401 27.2148 23.3799 27.2148C24.8546 27.2148 26.0651 26.0657 26.1651 24.616H27.5699C28.9099 24.616 30 23.5258 30 22.1858V18.3788C30.0001 17.0856 28.9845 16.0254 27.7091 15.953Z" fill="white"/>
</svg>
