<svg width="34" height="46" viewBox="0 0 34 46" fill="none" xmlns="http://www.w3.org/2000/svg">
<path d="M17 1C8.17785 1 1 8.34695 1 17.377C1 20.9505 2.10277 24.346 4.1918 27.1947L16.0137 43.492C16.0433 43.5315 16.0884 43.5466 16.1212 43.5818C16.712 44.2294 17.5645 44.0664 17.9854 43.492C21.3897 38.8426 27.6297 30.1594 30.0289 26.884C30.0289 26.884 30.0297 26.8815 30.0306 26.8798L30.0453 26.8596C31.9785 24.0797 33 20.801 33 17.377C33 8.34695 25.8222 1 17 1ZM17 26.2121C12.2501 26.2121 8.36821 22.2388 8.36821 17.377C8.36821 12.5151 12.2501 8.5418 17 8.5418C21.7499 8.5418 25.6318 12.5151 25.6318 17.377C25.6318 22.2388 21.7499 26.2121 17 26.2121Z" fill="#0E82C9" stroke="black" stroke-width="2"/>
</svg>
