<svg width="164" height="62" viewBox="0 0 164 62" fill="none" xmlns="http://www.w3.org/2000/svg">
<path fill-rule="evenodd" clip-rule="evenodd" d="M28.9799 39.9175C29.8736 40.8013 30.652 41.7886 31.2856 42.8723C31.9144 41.7941 32.6919 40.8085 33.5904 39.9221V10.5532H28.9799V39.9175Z" fill="#FF9800"/>
<path fill-rule="evenodd" clip-rule="evenodd" d="M16.4659 34.6085C17.578 34.6402 18.6798 34.7571 19.7591 34.9575V23.0851H16.4659V34.6085Z" fill="#FF9800"/>
<path fill-rule="evenodd" clip-rule="evenodd" d="M22.3936 35.7732C23.7954 36.2396 25.1262 36.8501 26.3454 37.5958V17.8085H22.3936V35.7732Z" fill="#FF9800"/>
<path fill-rule="evenodd" clip-rule="evenodd" d="M36.2249 37.5958C37.4419 36.8503 38.7705 36.2372 40.1767 35.7683V17.8085H36.2249V37.5958Z" fill="#FF9800"/>
<path fill-rule="evenodd" clip-rule="evenodd" d="M42.8112 23.0851V34.9575C43.8868 34.758 44.9895 34.6392 46.1044 34.6084V23.0851H42.8112Z" fill="#FF9800"/>
<path fill-rule="evenodd" clip-rule="evenodd" d="M58.6185 41.5557H46.0304C44.4416 41.5219 42.878 41.8357 41.4477 42.4499C37.532 44.1336 34.9816 47.916 34.9077 52.1064H38.0745C38.0961 51.2406 38.2692 50.3632 38.6089 49.5098C39.8445 46.4092 42.8653 44.6083 45.9835 44.6794H45.9907C46.0043 44.6803 46.0178 44.6794 46.0304 44.6803V44.6794H58.6185V41.5557Z" fill="white"/>
<path fill-rule="evenodd" clip-rule="evenodd" d="M54.008 46.1759H45.6696V46.175C42.5032 46.0442 39.6263 48.6125 39.5181 52.1064H42.6881C42.7963 50.4897 44.1806 49.3289 45.6696 49.4624V49.4577H54.008V46.1759Z" fill="white"/>
<path fill-rule="evenodd" clip-rule="evenodd" d="M45.6264 36.2766V36.2784C39.5384 36.211 33.7101 39.6498 30.9799 45.4693C28.1997 39.5432 22.3187 36.2001 16.2843 36.2802V36.2766H0.65863V39.4768H16.2843V39.4759C21.4141 39.3885 26.3868 42.4038 28.4286 47.6106C29.0081 49.0883 29.2951 50.6078 29.3169 52.1064H32.6411C32.6638 50.6078 32.9508 49.0883 33.5303 47.6106C35.5639 42.4211 40.5139 39.4076 45.6264 39.475V39.4768H61.253V36.2766H45.6264Z" fill="white"/>
<path fill-rule="evenodd" clip-rule="evenodd" d="M21.1352 42.4507C19.7086 41.8364 18.149 41.5226 16.5614 41.5555V41.5564H3.95178V44.6802H16.5614V44.6757C20.6189 44.5637 24.394 47.6963 24.5019 52.1064H27.6626C27.5889 47.9168 25.0443 44.1344 21.1352 42.4507Z" fill="white"/>
<path fill-rule="evenodd" clip-rule="evenodd" d="M16.261 46.175V46.176H7.90363V49.4578H16.261V49.4624C17.7452 49.3289 19.1251 50.4898 19.2338 52.1064H22.3936C22.2866 48.6116 19.4181 46.0434 16.261 46.175Z" fill="white"/>
<path fill-rule="evenodd" clip-rule="evenodd" d="M79.8959 45.5186C82.0536 45.5186 83.9417 43.6278 83.9417 40.8936C83.9417 38.0574 82.1891 36.2001 79.9294 36.2001C77.0986 36.2001 75.7496 38.5301 75.7496 40.8587C75.7496 43.2222 77.0651 45.5186 79.8959 45.5186ZM88.2571 48.9283H83.8747V46.9032H83.7392C82.6946 48.2863 81.1095 49.4681 78.4798 49.4681C75.3446 49.4681 71.1326 46.9367 71.1326 40.8265C71.1326 35.6267 74.7049 32.3192 78.8178 32.3192C81.3455 32.3192 82.8636 33.568 83.7392 34.8505H83.8747V32.7569H88.2571V48.9283Z" fill="white"/>
<path fill-rule="evenodd" clip-rule="evenodd" d="M98.8793 38.5549H96.644V45.6036H99.0766C101.376 45.6036 102.626 44.2798 102.626 42.0251C102.626 39.9854 101.278 38.5549 98.8793 38.5549ZM98.1891 28.8928H96.644V34.7971H98.3524C100.554 34.7971 101.541 33.6156 101.541 31.7197C101.541 29.8949 100.292 28.8928 98.1891 28.8928ZM92.2089 25.0638H98.4191C103.052 25.0638 106.173 27.1036 106.173 31.2186C106.173 33.9388 104.367 35.7636 102.165 36.3358V36.4069C105.582 36.908 107.357 39.557 107.357 42.455C107.357 46.9629 104.006 49.4681 99.5354 49.4681H92.2089V25.0638Z" fill="white"/>
<path fill-rule="evenodd" clip-rule="evenodd" d="M118.225 45.4497C120.572 45.4497 122.051 43.4738 122.051 40.8943C122.051 38.4161 120.668 36.3389 118.225 36.3389C115.812 36.3389 114.366 38.2815 114.366 40.8943C114.366 43.5404 116.037 45.4497 118.225 45.4497ZM118.225 32.3192C123.081 32.3192 126.458 36.0045 126.458 40.861C126.458 45.5843 123.047 49.4681 118.225 49.4681C113.497 49.4681 109.992 45.7175 109.992 40.861C109.992 35.9032 113.53 32.3192 118.225 32.3192Z" fill="white"/>
<path fill-rule="evenodd" clip-rule="evenodd" d="M136.996 45.4497C139.437 45.4497 140.975 43.4738 140.975 40.8943C140.975 38.4161 139.537 36.3389 136.996 36.3389C134.487 36.3389 132.982 38.2815 132.982 40.8943C132.982 43.5404 134.721 45.4497 136.996 45.4497ZM136.996 32.3192C142.046 32.3192 145.558 36.0045 145.558 40.861C145.558 45.5843 142.011 49.4681 136.996 49.4681C132.079 49.4681 128.434 45.7175 128.434 40.861C128.434 35.9032 132.114 32.3192 136.996 32.3192Z" fill="white"/>
<path fill-rule="evenodd" clip-rule="evenodd" d="M153.228 42.1318L152.165 43.1484V48.8085H147.534V24.4043H152.165V38.0639L157.379 32.5723H163.005L156.419 39.2504L164 48.8085H158.408L153.228 42.1318Z" fill="white"/>
</svg>
