<svg width="45" height="32" viewBox="0 0 45 32" fill="none" xmlns="http://www.w3.org/2000/svg">
<path d="M43.9686 5.14036C43.9686 5.09297 44.0021 5.04685 43.9999 5L31 17.1948L43.9843 29C43.9919 28.9157 43.9686 28.8306 43.9686 28.7445V5.14036Z" fill="#0E82C9" stroke="#0A3D62" stroke-width="2"/>
<path d="M28.5377 19L23.239 23.717C22.9708 23.9557 22.6245 24.0753 22.2781 24.0753C21.9388 24.0753 21.5995 23.9608 21.3332 23.7312L16.0489 19.1751L3 30.8126C3.31729 30.9181 3.65786 31 4.01451 31H40.5418C41.0714 31 41.5681 30.8507 42 30.6281L28.5377 19Z" fill="#0E82C9" stroke="#0A3D62" stroke-width="2"/>
<path d="M22.6824 21L43 1.45632C42.54 1.18321 42.0046 1 41.4306 1H3.96549C3.21815 1 2.53336 1.28976 2 1.7317L22.6824 21Z" fill="#0E82C9" stroke="#0A3D62" stroke-width="2"/>
<path d="M1 5V28.2305C1 28.4972 1.06256 28.7543 1.13047 29L14 16.8579L1 5Z" fill="#0E82C9" stroke="#0A3D62" stroke-width="2"/>
</svg>
