<svg width="48" height="45" viewBox="0 0 48 45" fill="none" xmlns="http://www.w3.org/2000/svg">
<path d="M42.8743 29.3121C40.0699 29.3121 37.323 28.898 34.7196 28.0855C33.449 27.6713 32.0061 27.9904 31.1711 28.7961L26.0098 32.4828C20.0875 29.4932 16.2973 25.9106 13.1795 20.35L16.9721 15.5838C17.9268 14.6808 18.269 13.3591 17.8598 12.1212C16.9936 9.64301 16.5534 7.04264 16.5534 4.39474C16.5534 2.52307 14.943 1 12.9641 1H4.58923C2.61033 1 1 2.52307 1 4.39474C1 26.2319 19.786 44 42.8743 44C44.8532 44 46.4635 42.4769 46.4635 40.6053V32.7069C46.4635 30.8352 44.8532 29.3121 42.8743 29.3121Z" fill="#0E82C9" stroke="#0A3D62" stroke-width="2"/>
</svg>
