<svg width="64" height="64" viewBox="0 0 64 64" fill="none" xmlns="http://www.w3.org/2000/svg">
<path d="M49.1 33.5395H43.4C43.0512 33.5395 42.7691 33.8148 42.7691 34.1553V36.6331C42.7691 36.9736 43.0512 37.2489 43.4 37.2489H49.1C49.4488 37.2489 49.7309 36.9736 49.7309 36.6331V34.1626C49.7309 33.8221 49.4488 33.5395 49.1 33.5395ZM45.3 36.0173H44.0309V34.7784H45.3V36.0173Z" fill="#C9D5E2"/>
<path d="M16.1691 26.0484V21.2596C14.8109 21.6001 13.9945 22.9476 14.3434 24.2662C14.5734 25.1355 15.2711 25.8238 16.1691 26.0484Z" fill="#92A6B7"/>
<path d="M41.5 36.6331V34.1626C41.5 33.1411 42.3535 32.3079 43.4 32.3079H46.5691V27.3597H16.8C15.8648 27.3597 14.9594 27.0192 14.2691 26.4106V47.1381C14.2691 47.4786 14.5512 47.7539 14.9 47.7539H45.9309C46.2797 47.7539 46.5617 47.4786 46.5617 47.1381V38.4877H43.3926C42.3535 38.4877 41.5 37.6546 41.5 36.6331Z" fill="#C9D5E2"/>
<path d="M19.0934 25.8238C18.8559 25.7296 18.7 25.505 18.7 25.2514V20.8176C18.7 20.564 18.8559 20.3394 19.0934 20.2453C20.2066 19.8033 21.0824 18.9412 21.5352 17.8617C21.6316 17.6299 21.8617 17.4777 22.1215 17.4777H25.6617V18.7166H22.5297C21.9731 19.8033 21.075 20.68 19.9617 21.2233V24.8602C20.6074 25.179 21.1863 25.6064 21.6613 26.1353H26.634C24.875 23.5851 25.5727 20.1293 28.1852 18.4123C30.7977 16.6953 34.3379 17.3618 36.0969 19.912C37.3883 21.7884 37.3883 24.2444 36.0969 26.1208H41.0695C41.552 25.5992 42.1234 25.1645 42.7691 24.8457V21.2088C41.6559 20.6655 40.7578 19.7888 40.2012 18.7021H37.0691V17.4705H40.6094C40.8691 17.4705 41.0992 17.6226 41.1957 17.8545C41.6484 18.9412 42.5316 19.7961 43.6375 20.238C43.875 20.3322 44.0309 20.5568 44.0309 20.8104V25.2442C44.0309 25.4978 43.875 25.7224 43.6375 25.8165C43.4297 25.9035 43.2293 26.0049 43.0289 26.1136H45.3V16.2316H17.4309V26.1208H19.6945C19.509 26.0049 19.3012 25.9107 19.0934 25.8238ZM24.4 23.6503H23.1309V22.4115H24.4V23.6503ZM38.3309 22.4115H39.6V23.6503H38.3309V22.4115Z" fill="#0E82C9"/>
<path d="M49.1 32.3079H47.8309V20.5568C47.8309 20.2163 47.5488 19.941 47.2 19.941H46.5691V15.6158C46.5691 15.2753 46.2871 15 45.9383 15H16.8C16.4512 15 16.1691 15.2753 16.1691 15.6158V19.9989C14.3434 20.296 13 21.8391 13 23.6503V47.1453C13 48.1668 13.8535 49 14.9 49H45.9309C46.9773 49 47.8309 48.1668 47.8309 47.1453V38.4877H49.1C50.1465 38.4877 51 37.6546 51 36.6331V34.1626C51 33.1338 50.1465 32.3079 49.1 32.3079ZM17.4309 16.2316H45.3V26.1208H43.0363C43.2293 26.0049 43.4297 25.9035 43.6449 25.8238C43.8824 25.7296 44.0383 25.505 44.0383 25.2514V20.8176C44.0383 20.564 43.8824 20.3394 43.6449 20.2453C42.5316 19.8033 41.6559 18.9412 41.1957 17.8545C41.0992 17.6226 40.8691 17.4705 40.6094 17.4705H37.0691V18.7094H40.2012C40.7578 19.7961 41.6633 20.6727 42.7691 21.2161V24.853C42.1234 25.1717 41.5445 25.5992 41.0695 26.1281H36.0969C37.8559 23.5779 37.1582 20.1221 34.5457 18.4051C31.9332 16.688 28.393 17.3618 26.634 19.912C25.3426 21.7884 25.3426 24.2444 26.634 26.1208H21.6613C21.1789 25.5992 20.6074 25.1645 19.9617 24.8457V21.2088C21.075 20.6655 21.973 19.7888 22.5297 18.7021H25.6617V17.4705H22.1289C21.8691 17.4705 21.6391 17.6226 21.5426 17.8545C21.0898 18.9412 20.2066 19.8033 19.0934 20.2453C18.8559 20.3394 18.7 20.564 18.7 20.8176V25.2514C18.7 25.505 18.8559 25.7296 19.0934 25.8238C19.3012 25.9107 19.5016 26.0121 19.702 26.1208H17.4309V16.2316ZM34.5457 26.0411C34.516 26.0701 34.4938 26.0991 34.4641 26.1208H28.2742C26.5227 24.4545 26.4855 21.716 28.1926 19.9989C29.8996 18.2892 32.7051 18.2529 34.4641 19.9192C36.2156 21.5928 36.2527 24.3313 34.5457 26.0411ZM14.3434 23.0345C14.5734 22.1579 15.2711 21.4769 16.1691 21.2523V26.0411C14.8109 25.7079 13.9945 24.3603 14.3434 23.0345ZM46.5691 47.1453C46.5691 47.4858 46.2871 47.7611 45.9383 47.7611H14.9C14.5512 47.7611 14.2691 47.4858 14.2691 47.1453V26.4106C14.9668 27.0192 15.8648 27.3597 16.8 27.3597H46.5691V32.3079H43.4C42.3535 32.3079 41.5 33.1411 41.5 34.1626V36.6331C41.5 37.6546 42.3535 38.4877 43.4 38.4877H46.5691V47.1453ZM49.7309 36.6331C49.7309 36.9736 49.4488 37.2489 49.1 37.2489H43.4C43.0512 37.2489 42.7691 36.9736 42.7691 36.6331V34.1626C42.7691 33.8221 43.0512 33.5468 43.4 33.5468H49.1C49.4488 33.5468 49.7309 33.8221 49.7309 34.1626V36.6331Z" fill="#0A3D62"/>
<path d="M34.5457 26.0411C34.516 26.0701 34.4938 26.0991 34.4641 26.1208H28.2742C26.5227 24.4545 26.4856 21.716 28.1926 19.9989C29.8996 18.2892 32.7051 18.2529 34.4641 19.9192C36.2156 21.5928 36.2527 24.3313 34.5457 26.0411Z" fill="#0E82C9"/>
<path d="M39.6 22.4115H38.3309V23.6503H39.6V22.4115Z" fill="#0A3D62"/>
<path d="M24.4 22.4115H23.1309V23.6503H24.4V22.4115Z" fill="#0A3D62"/>
<path d="M45.3 34.7784H44.0309V36.0173H45.3V34.7784Z" fill="#0A3D62"/>
</svg>
