<svg width="30" height="28" viewBox="0 0 30 28" fill="none" xmlns="http://www.w3.org/2000/svg">
<path d="M29.651 12.3487L18.8457 1.10075C18.4932 0.7343 17.9529 0.619269 17.4827 0.809054C17.0106 1.00067 16.7013 1.45896 16.7013 1.96881V7.38469H16.2858C7.3492 7.38469 0.078125 14.6734 0.078125 23.6317V26.1313C0.078125 26.711 0.485388 27.1943 1.0488 27.3261C1.14042 27.3493 1.23173 27.3594 1.32305 27.3594C1.79362 27.3594 2.24411 27.0826 2.46174 26.6478C4.79909 21.9603 9.49844 19.0491 14.7265 19.0491H16.7013V24.4647C16.7013 24.9749 17.0106 25.4332 17.4827 25.6229C17.9499 25.8146 18.4932 25.698 18.8457 25.3312L29.651 14.0833C30.1164 13.5985 30.1164 12.8354 29.651 12.3487Z" fill="white"/>
</svg>
