<svg width="27" height="25" viewBox="0 0 27 25" fill="none" xmlns="http://www.w3.org/2000/svg">
<path d="M26.932 9.44773C26.7596 8.92201 26.2791 8.5443 25.7097 8.49326L18.0054 7.81441L14.9602 0.84218C14.7356 0.331768 14.2237 0 13.6544 0C13.085 0 12.5731 0.331768 12.3485 0.84218L9.30334 7.81441L1.59896 8.49326C1.03484 8.5443 0.554294 8.9169 0.376702 9.44773C0.199109 9.97346 0.361032 10.5553 0.789343 10.9228L6.61333 15.9147L4.90009 23.3054C4.77473 23.8465 4.98888 24.413 5.45376 24.7346C5.69925 24.9081 5.99176 25 6.28426 25C6.53498 25 6.7857 24.9336 7.0103 24.8009L13.6544 20.9218L20.2984 24.8009C20.7842 25.0868 21.3953 25.0612 21.8602 24.7346C22.3198 24.4079 22.5392 23.8465 22.4138 23.3054L20.6954 15.9147L26.5194 10.9228C26.9424 10.5553 27.1044 9.97856 26.932 9.44773Z" fill="#9EABAF"/>
</svg>
