<svg width="27" height="25" viewBox="0 0 27 25" fill="none" xmlns="http://www.w3.org/2000/svg">
<path d="M26.6216 9.45104C26.4468 8.92291 25.9675 8.5478 25.4003 8.49785L17.6965 7.8143L14.6502 0.846876C14.4256 0.336254 13.9141 0.00572205 13.3457 0.00572205C12.7773 0.00572205 12.2658 0.336254 12.0412 0.84807L8.99488 7.8143L1.28987 8.49785C0.723742 8.549 0.245589 8.92291 0.069846 9.45104C-0.105897 9.97918 0.0564056 10.5585 0.484665 10.9236L6.30782 15.914L4.59071 23.3053C4.46506 23.8488 4.68092 24.4105 5.14237 24.7365C5.39041 24.9116 5.6806 25.0007 5.97323 25.0007C6.22555 25.0007 6.47582 24.9343 6.70044 24.8029L13.3457 20.9219L19.9885 24.8029C20.4746 25.0887 21.0874 25.0626 21.5478 24.7365C22.0095 24.4095 22.2251 23.8476 22.0995 23.3053L20.3824 15.914L26.2055 10.9246C26.6338 10.5585 26.7973 9.98017 26.6216 9.45104Z" fill="#FFC107"/>
</svg>
