<svg width="58" height="58" viewBox="0 0 58 58" fill="none" xmlns="http://www.w3.org/2000/svg">
<path d="M29 0C14.9458 0 3.51172 11.434 3.51172 25.4883C3.51172 27.0458 3.51172 39.0943 3.51172 39.3086C3.51172 42.1194 5.79853 44.4062 8.60938 44.4062H10.6009C11.3023 46.3839 13.191 47.8047 15.4062 47.8047C18.2171 47.8047 20.5039 45.5179 20.5039 42.707V28.8867C20.5039 26.0759 18.2171 23.7891 15.4062 23.7891C13.191 23.7891 11.3023 25.2098 10.6009 27.1875H8.60938C8.01363 27.1875 7.44201 27.2912 6.91016 27.4798V25.4883C6.91016 13.3079 16.8197 3.39844 29 3.39844C41.1803 3.39844 51.0898 13.3079 51.0898 25.4883V27.4798C50.558 27.2912 49.9864 27.1875 49.3906 27.1875H47.3991C46.6977 25.2098 44.809 23.7891 42.5938 23.7891C39.7829 23.7891 37.4961 26.0759 37.4961 28.8867V42.707C37.4961 45.5179 39.7829 47.8047 42.5938 47.8047C43.1082 47.8047 43.6048 47.7274 44.0733 47.585C43.4377 49.6764 41.4917 51.2031 39.1953 51.2031H33.8054C33.104 49.2255 31.2152 47.8047 29 47.8047C26.1892 47.8047 23.9023 50.0915 23.9023 52.9023C23.9023 55.7132 26.1892 58 29 58C31.2152 58 33.104 56.5792 33.8054 54.6016H39.1953C43.8801 54.6016 47.6914 50.7902 47.6914 46.1055V44.4062H49.3906C52.2015 44.4062 54.4883 42.1194 54.4883 39.3086C54.4883 39.0974 54.4883 27.0445 54.4883 25.4883C54.4883 11.434 43.0542 0 29 0ZM13.707 28.8867C13.707 27.9498 14.4693 27.1875 15.4062 27.1875C16.3432 27.1875 17.1055 27.9498 17.1055 28.8867V42.707C17.1055 43.644 16.3432 44.4062 15.4062 44.4062C14.4693 44.4062 13.707 43.644 13.707 42.707V28.8867ZM8.60938 30.5859H10.3086V41.0078H8.60938C7.67243 41.0078 6.91016 40.2455 6.91016 39.3086V32.2852C6.91016 31.3482 7.67243 30.5859 8.60938 30.5859ZM29 54.6016C28.0631 54.6016 27.3008 53.8393 27.3008 52.9023C27.3008 51.9654 28.0631 51.2031 29 51.2031C29.9369 51.2031 30.6992 51.9654 30.6992 52.9023C30.6992 53.8393 29.9369 54.6016 29 54.6016ZM44.293 42.707C44.293 43.644 43.5307 44.4062 42.5938 44.4062C41.6568 44.4062 40.8945 43.644 40.8945 42.707V28.8867C40.8945 27.9498 41.6568 27.1875 42.5938 27.1875C43.5307 27.1875 44.293 27.9498 44.293 28.8867V42.707ZM51.0898 39.3086C51.0898 40.2455 50.3276 41.0078 49.3906 41.0078H47.6914V30.5859H49.3906C50.3276 30.5859 51.0898 31.3482 51.0898 32.2852V39.3086Z" fill="#115E96"/>
</svg>
