<svg width="64" height="64" viewBox="0 0 64 64" fill="none" xmlns="http://www.w3.org/2000/svg">
<path d="M35 33V36L33 37H31L29 36V33H35Z" fill="#FFC477"/>
<path d="M35 33V35.325C33.1 36.2375 30.9 36.2375 29 35.325V33H35Z" fill="#E6E7E8"/>
<path d="M53.2 30L54 34L53.175 43.175C53.075 44.2125 52.2125 45 51.175 45H42V50H35L33.175 39.825L34 39L37 40L38.5875 36.025C39.6625 36.1375 40.6875 36.525 41.5625 37.175C42.5375 36.425 43.7375 36.0125 44.975 36C46.4625 35.9875 47.9 36.5375 49 37.5375V30H53.2Z" fill="#E6E7E8"/>
<path d="M52.6375 27.225L53.2 30H49V28H48C46.8875 27.9875 46 27.0875 46 25.975C46 25.8125 46.025 25.6625 46.0625 25.5125C46.325 24.6 47.1625 23.9875 48.1125 24H48.725C50.625 24 52.2625 25.35 52.6375 27.225Z" fill="#E6E7E8"/>
<path d="M42 26C42 27.1 41.1 28 40 28H38V24H40C41.1 24 42 24.9 42 26Z" fill="#E6E7E8"/>
<path d="M26 24V28H24C22.9 28 22 27.1 22 26C22 24.9 22.9 24 24 24H26Z" fill="#E6E7E8"/>
<path d="M38.3375 23C36.9625 23 35.7625 22.0625 35.425 20.725L35 19C35 21.2125 33.2125 23 31 23H25V27C25 30.8625 28.1375 34 32 34C35.8625 34 39 30.8625 39 27V23H38.3375Z" fill="#E6E7E8"/>
<path d="M39 21V23H38.3375C36.9625 23 35.7625 22.0625 35.425 20.725L35 19C35 21.2125 33.2125 23 31 23H25V21C25 17.1375 28.1375 14 32 14C35.8625 14 39 17.1375 39 21Z" fill="#92A6B7"/>
<path d="M38.5875 36.025L37 40L34 39L33 37L35 36H38C38.2 36 38.3875 36.0125 38.5875 36.025Z" fill="#92A6B7"/>
<path d="M33.175 39.825L35 50H29L30.825 39.825L32 41L33.175 39.825Z" fill="#0E82C9"/>
<path d="M33 37L34 39L33.175 39.825L32 41L30.825 39.825L30 39L31 37H33Z" fill="#0E82C9"/>
<path d="M31 37L30 39L27 40L25.4125 36.025C25.6125 36 25.8 36 26 36H29L31 37Z" fill="#92A6B7"/>
<path d="M30.825 39.825L29 50H22V45H12.825C11.7875 45 10.925 44.2125 10.825 43.175L10 34L10.8 30H15V37.5375C16.1 36.5375 17.5375 35.9875 19.025 36C20.2625 36.0125 21.45 36.425 22.4375 37.175C23.3 36.525 24.3375 36.1375 25.4125 36.025L27 40L30 39L30.825 39.825Z" fill="#E6E7E8"/>
<path d="M17.4125 24.5875C17.9125 25.075 18.125 25.8 17.9375 26.4875C17.675 27.4 16.8375 28.0125 15.8875 28H15V30H10.8L11.3625 27.225C11.7375 25.35 13.375 24.0125 15.2875 24H16.0125C16.525 24 17.0375 24.2125 17.4125 24.5875Z" fill="#E6E7E8"/>
<path d="M12.825 46H21V50C21 50.55 21.45 51 22 51H42C42.55 51 43 50.55 43 50V46H51.175C52.725 46.0125 54.025 44.825 54.1625 43.275L55 34.1C55.0125 34 55 33.9125 54.9875 33.8125L53.625 27.025C53.1625 24.6875 51.1 23 48.725 23H48.1125C46.7125 22.975 45.475 23.9125 45.1 25.2625C44.7 26.875 45.675 28.5125 47.2875 28.9125C47.525 28.975 47.7625 29 48 29V35.675C47.05 35.225 46.0125 35 44.9625 35C43.7625 35.0125 42.5875 35.35 41.55 35.975C40.675 35.45 39.7 35.1375 38.6875 35.0375C38.4625 35.0125 38.225 35 37.9875 35H35.9875V33.9125C37.8375 32.8375 39.1875 31.0625 39.725 29H39.9875C41.65 29 42.9875 27.6625 42.9875 26C42.9875 24.3375 41.65 23 39.9875 23V21C39.9875 16.5875 36.4 13 31.9875 13C27.575 13 23.9875 16.5875 23.9875 21V23C22.325 23 20.9875 24.3375 20.9875 26C20.9875 27.6625 22.325 29 23.9875 29H24.25C24.7875 31.075 26.1375 32.8375 27.9875 33.9125V35H25.9875C24.7375 35 23.5125 35.3375 22.4375 35.975C21.4125 35.35 20.2375 35.0125 19.025 35C17.975 35.0125 16.9375 35.2375 15.9875 35.675V29C17.35 28.975 18.5375 28.0625 18.8875 26.7375C19.2875 25.125 18.3125 23.4875 16.7 23.0875C16.4625 23.025 16.225 23 15.975 23H15.25C12.8625 23 10.8125 24.6875 10.35 27.025L8.98749 33.8C8.96249 33.9 8.96249 33.9875 8.96249 34.0875L9.79999 43.275C9.96249 44.825 11.275 46.0125 12.825 46ZM32.7875 38.8L32 39.5875L31.2125 38.8L31.6125 38H32.375L32.7875 38.8ZM31.475 41.825C31.7875 42.05 32.2125 42.05 32.525 41.825L33.8125 49H30.2125L31.475 41.825ZM47.2875 26.7C47.0375 26.45 46.9375 26.0875 47.0375 25.75C47.1875 25.2875 47.625 24.975 48.1125 25H48.725C50.15 25 51.3875 26.0125 51.6625 27.4125L51.975 29H50V28C50 27.45 49.55 27 49 27H48C47.7375 27 47.475 26.8875 47.2875 26.7ZM42.1625 37.975C42.975 37.35 43.9625 37.0125 44.975 37C46.2125 37 47.4125 37.4625 48.325 38.2875C48.7375 38.6625 49.3625 38.625 49.7375 38.2125C49.9 38.025 49.9875 37.7875 49.9875 37.55V31H52.3625L52.975 34.05L52.15 43.0875C52.1 43.6 51.675 44 51.15 44H42C41.45 44 41 44.45 41 45V49H35.8375L34.25 40.1625L34.2625 40.15L36.675 40.95C36.775 40.9875 36.8875 41 36.9875 41C37.4 41 37.7625 40.75 37.9125 40.375L39.2 37.1625C39.8375 37.325 40.425 37.6 40.95 37.9875C41.325 38.25 41.8125 38.25 42.1625 37.975ZM37.125 37L36.425 38.75L34.7125 38.175L34.35 37.4375L35.2375 36.9875H37.125V37ZM41 26C41 26.55 40.55 27 40 27V25C40.55 25 41 25.45 41 26ZM32 15C35.3125 15 38 17.6875 38 21V21.975C37.225 21.8375 36.5875 21.2625 36.4 20.4875L35.975 18.7625C35.8375 18.225 35.3 17.9 34.7625 18.0375C34.3125 18.15 34 18.55 34 19.0125C34 20.675 32.6625 22.0125 31 22.0125H26V21.0125C26 17.6875 28.6875 15 32 15ZM23 26C23 25.45 23.45 25 24 25V27C23.45 27 23 26.55 23 26ZM26 27V24H31C32.5375 24 33.9875 23.3 34.925 22.0875C35.5875 23.175 36.725 23.875 38 23.975V27C38 30.3125 35.3125 33 32 33C28.6875 33 26 30.3125 26 27ZM32 35C32.675 35 33.35 34.9125 34 34.7375V35.3875L32.7625 36H31.2375L30 35.3875V34.7375C30.65 34.9125 31.325 35 32 35ZM28.7625 37L29.6625 37.45L29.3 38.1875L27.5875 38.7625L26.8875 37.0125H28.7625V37ZM19.025 37C20.05 37.0125 21.0375 37.3625 21.8375 37.975C22.1875 38.2375 22.675 38.25 23.0375 37.975C23.5625 37.5875 24.1625 37.3125 24.7875 37.1625L26.075 40.3625C26.225 40.7375 26.5875 40.9875 27 40.9875C27.1125 40.9875 27.2125 40.975 27.3125 40.9375L29.725 40.1375L29.7375 40.15L28.1625 49H23V45C23 44.45 22.55 44 22 44H12.825C12.3 44 11.875 43.6125 11.825 43.0875L11 34.05L11.625 31H14V37.5375C14 38.0875 14.45 38.5375 15 38.5375C15.25 38.5375 15.4875 38.45 15.6625 38.2875C16.6 37.4625 17.7875 37.0125 19.025 37ZM15.275 25H16C16.2625 25 16.525 25.1125 16.7125 25.3C16.9625 25.55 17.0625 25.9125 16.9625 26.25C16.8125 26.7125 16.375 27.025 15.8875 27H15C14.45 27 14 27.45 14 28V29H12.025L12.3375 27.4125C12.625 26.0125 13.85 25 15.275 25Z" fill="#0A3D62"/>
<path d="M28 25H30V27H28V25Z" fill="#0A3D62"/>
<path d="M34 25H36V27H34V25Z" fill="#0A3D62"/>
</svg>
