<svg width="34" height="34" viewBox="0 0 34 34" fill="none" xmlns="http://www.w3.org/2000/svg">
<g clip-path="url(#clip0)">
<path d="M23.3735 0C21.5609 0.125374 19.4423 1.28562 18.2077 2.79648C17.0814 4.1671 16.155 6.20284 16.5162 8.1812C18.4967 8.24283 20.543 7.05496 21.7288 5.51859C22.838 4.08848 23.6774 2.06549 23.3735 0Z" fill="#0A3D62"/>
<path d="M30.5369 11.4069C28.7965 9.22456 26.3506 7.95807 24.0408 7.95807C20.9914 7.95807 19.7016 9.41794 17.5829 9.41794C15.3985 9.41794 13.7388 7.96232 11.1017 7.96232C8.51138 7.96232 5.75314 9.54543 4.00428 12.2527C1.54567 16.0649 1.96641 23.2325 5.95077 29.3376C7.37663 31.5221 9.28062 33.9785 11.7711 33.9998C13.9875 34.021 14.6122 32.5782 17.6148 32.5633C20.6174 32.5463 21.1869 34.0189 23.399 33.9955C25.8917 33.9764 27.8998 31.2543 29.3256 29.0698C30.3478 27.5037 30.7281 26.7153 31.5207 24.9473C25.7557 22.7522 24.8313 14.554 30.5369 11.4069Z" fill="#0A3D62"/>
</g>
<defs>
<clipPath id="clip0">
<rect width="34" height="34" fill="white"/>
</clipPath>
</defs>
</svg>
