<svg width="64" height="64" viewBox="0 0 64 64" fill="none" xmlns="http://www.w3.org/2000/svg">
<path d="M54.4 61.8667H29.8667L29.6133 61.8133C29.7867 61.5067 29.8667 61.16 29.8667 60.8V58.6667H51.2V35.2267H54.4V61.8667Z" fill="#92A6B7"/>
<path d="M29.8667 33.0667H51.2V58.6667H29.8667V33.0667Z" fill="#E6E7E8"/>
<path d="M34.1333 18.1333V22.4H32C31.4133 22.4 30.9333 21.92 30.9333 21.3333V19.2C30.9333 18.6133 31.4133 18.1333 32 18.1333H34.1333Z" fill="#E6E7E8"/>
<path d="M62.9333 19.2V21.3333C62.9333 21.92 62.4533 22.4 61.8667 22.4H59.7333V18.1333H61.8667C62.4533 18.1333 62.9333 18.6133 62.9333 19.2Z" fill="#E6E7E8"/>
<path d="M38.4 18.1333V22.4C38.4 23.5733 37.44 24.5333 36.2667 24.5333C35.0933 24.5333 34.1333 23.5733 34.1333 22.4V18.1333C34.1333 16.96 35.0933 16 36.2667 16C37.44 16.0133 38.3867 16.96 38.4 18.1333Z" fill="#0E82C9"/>
<path d="M59.7333 18.1333V22.4C59.7333 23.5733 58.7733 24.5333 57.6 24.5333C56.4267 24.5333 55.4667 23.5733 55.4667 22.4V18.1333C55.48 16.96 56.4267 16.0133 57.6 16C58.7733 16 59.7333 16.96 59.7333 18.1333Z" fill="#0E82C9"/>
<path d="M29.8667 58.6667V60.8C29.8667 61.9733 28.9067 62.9333 27.7333 62.9333C26.56 62.9333 25.6 61.9733 25.6 60.8V35.2H29.8667V58.6667Z" fill="#92A6B7"/>
<path d="M4.26668 58.6667H25.6V60.8C25.6 61.16 25.6933 61.5067 25.8533 61.8133L25.6 61.8667H1.06668V35.2267H4.26668V58.6667Z" fill="#92A6B7"/>
<path d="M48 45.8667C48 49.9867 44.6533 53.3333 40.5333 53.3333C36.4133 53.3333 33.0667 49.9867 33.0667 45.8667C33.0667 41.7467 36.4133 38.4 40.5333 38.4C44.6533 38.4 48 41.7467 48 45.8667Z" fill="#0E82C9"/>
<path d="M43.4667 44.9867C43.76 45.1867 43.9467 45.52 43.9467 45.8667C43.9467 46.2133 43.76 46.56 43.4667 46.7467L40.0533 49.0134C39.7333 49.2267 39.3067 49.2534 38.96 49.0667C38.6133 48.88 38.4 48.52 38.4 48.12V43.6C38.4 43.2133 38.6133 42.84 38.96 42.6533C39.3067 42.4667 39.7333 42.4933 40.0533 42.7067L43.4667 44.9867Z" fill="#E6E7E8"/>
<path d="M4.26666 58.6667V33.0667H25.6V58.6667H4.26666Z" fill="#E6E7E8"/>
<path d="M2.13333 35.2267H0V61.8667C0 62.4533 0.48 62.9333 1.06667 62.9333H23.4667V60.8H2.13333V35.2267Z" fill="#0A3D62"/>
<path d="M11.7333 36.2667H22.4V38.4H11.7333V36.2667Z" fill="#0A3D62"/>
<path d="M7.46667 40.5333H22.4V42.6667H7.46667V40.5333Z" fill="#0A3D62"/>
<path d="M7.46667 44.8H22.4V46.9333H7.46667V44.8Z" fill="#0A3D62"/>
<path d="M7.46667 49.0667H22.4V51.2H7.46667V49.0667Z" fill="#0A3D62"/>
<path d="M7.46667 53.3333H22.4V55.4667H7.46667V53.3333Z" fill="#0A3D62"/>
<path d="M53.3333 60.8H32V62.9333H54.4C54.9867 62.9333 55.4667 62.4533 55.4667 61.8667V35.2267H53.3333V60.8Z" fill="#0A3D62"/>
<path d="M7.46667 36.2667H9.60001V38.4H7.46667V36.2667Z" fill="#0A3D62"/>
<path d="M38.4533 50.0267C39.1467 50.4 39.9867 50.36 40.64 49.92L44.0533 47.64C44.64 47.24 45 46.5733 45 45.8667C45 45.16 44.64 44.4933 44.0533 44.0933L40.64 41.8133C39.9867 41.3733 39.1467 41.3333 38.4533 41.7067C37.76 42.08 37.32 42.8 37.32 43.5867V48.1333C37.3333 48.9333 37.76 49.6533 38.4533 50.0267ZM39.4667 43.5867L42.88 45.8667L39.4667 48.1467V43.5867Z" fill="#0A3D62"/>
<path d="M40.5333 54.4C45.24 54.4 49.0667 50.5733 49.0667 45.8667C49.0667 41.16 45.24 37.3333 40.5333 37.3333C35.8267 37.3333 32 41.16 32 45.8667C32 50.5733 35.8267 54.4 40.5333 54.4ZM40.5333 39.4667C44.0667 39.4667 46.9333 42.3333 46.9333 45.8667C46.9333 49.4 44.0667 52.2667 40.5333 52.2667C37 52.2667 34.1333 49.4 34.1333 45.8667C34.1333 42.3333 37 39.4667 40.5333 39.4667Z" fill="#0A3D62"/>
<path d="M61.8667 17.0667V14.9333C61.8667 6.68 55.1867 0 46.9333 0C38.68 0 32 6.68 32 14.9333V17.0667C30.8267 17.0667 29.8667 18.0267 29.8667 19.2H26.6667C24.8933 19.2 23.4667 17.7733 23.4667 16V7.46667C23.4667 3.34667 20.12 0 16 0C11.88 0 8.53335 3.34667 8.53335 7.46667V32H4.26668C3.68001 32 3.20001 32.48 3.20001 33.0667V58.6667C3.20001 59.2533 3.68001 59.7333 4.26668 59.7333H24.5333V60.8C24.5333 62.5733 25.96 64 27.7333 64C29.5067 64 30.9333 62.5733 30.9333 60.8V59.7333H51.2C51.7867 59.7333 52.2667 59.2533 52.2667 58.6667V33.0667C52.2667 32.48 51.7867 32 51.2 32H29.8667C29.28 32 28.8 32.48 28.8 33.0667V34.1333H26.6667V33.0667C26.6667 32.48 26.1867 32 25.6 32H10.6667V7.46667C10.6667 4.52 13.0533 2.13333 16 2.13333C18.9467 2.13333 21.3333 4.52 21.3333 7.46667V16C21.3333 18.9467 23.72 21.3333 26.6667 21.3333H29.8667C29.8667 22.5067 30.8267 23.4667 32 23.4667H33.2667C33.7867 24.9333 35.28 25.8133 36.8133 25.5467C38.3467 25.28 39.4667 23.9467 39.4667 22.4V18.1333C39.4667 16.8667 38.7333 15.72 37.5733 15.2133C36.4133 14.7067 35.0667 14.92 34.1333 15.7733V14.9333C34.1333 7.86667 39.8667 2.13333 46.9333 2.13333C54 2.13333 59.7333 7.86667 59.7333 14.9333V15.76C58.8 14.9067 57.4533 14.6933 56.2933 15.2C55.1333 15.7067 54.4 16.8667 54.4 18.1333V22.4C54.4 23.96 55.52 25.2933 57.0533 25.5467C58.5867 25.8133 60.0933 24.9333 60.6 23.4667H61.8667C63.04 23.4667 64 22.5067 64 21.3333V19.2C64 18.0267 63.04 17.0667 61.8667 17.0667ZM30.9333 34.1333H50.1333V57.6H30.9333V34.1333ZM28.8 36.2667V60.8C28.8 61.3867 28.32 61.8667 27.7333 61.8667C27.1467 61.8667 26.6667 61.3867 26.6667 60.8V36.2667H28.8ZM24.5333 57.6H5.33335V34.1333H24.5333V57.6ZM32 19.2H33.0667V21.3333H32V19.2ZM35.2 18.1333C35.2 17.5467 35.68 17.0667 36.2667 17.0667C36.8533 17.0667 37.3333 17.5467 37.3333 18.1333V22.4C37.3333 22.9867 36.8533 23.4667 36.2667 23.4667C35.68 23.4667 35.2 22.9867 35.2 22.4V18.1333ZM58.6667 22.4C58.6667 22.9867 58.1867 23.4667 57.6 23.4667C57.0133 23.4667 56.5333 22.9867 56.5333 22.4V18.1333C56.5333 17.5467 57.0133 17.0667 57.6 17.0667C58.1867 17.0667 58.6667 17.5467 58.6667 18.1333V22.4ZM61.8667 21.3333H60.8V19.2H61.8667V21.3333Z" fill="#0A3D62"/>
</svg>
