<svg width="64" height="64" viewBox="0 0 64 64" fill="none" xmlns="http://www.w3.org/2000/svg">
<path d="M5.33333 49.0933H29.8667L30.12 49.04C29.9467 48.7333 29.8667 48.3867 29.8667 48.0267V45.8933H8.53333V22.4533H5.33333V49.0933Z" fill="#92A6B7"/>
<path d="M29.8667 20.2933H8.53337V45.8933H29.8667V20.2933Z" fill="#E6E7E8"/>
<path d="M29.8667 45.8933V48.0267C29.8667 49.2 30.8267 50.16 32 50.16C33.1734 50.16 34.1334 49.2 34.1334 48.0267V22.4267H29.8667V45.8933Z" fill="#92A6B7"/>
<path d="M55.4667 45.8933H34.1334V48.0267C34.1334 48.3867 34.04 48.7333 33.88 49.04L34.1334 49.0933H58.6667V22.4533H55.4667V45.8933Z" fill="#92A6B7"/>
<path d="M55.4667 45.8933V20.2933H34.1333V45.8933H55.4667Z" fill="#E6E7E8"/>
<path d="M57.6 22.4533H59.7333V49.0933C59.7333 49.68 59.2533 50.16 58.6667 50.16H36.2667V48.0267H57.6V22.4533Z" fill="#0A3D62"/>
<path d="M48 23.4933H37.3333V25.6267H48V23.4933Z" fill="#0A3D62"/>
<path d="M52.2667 27.76H37.3333V29.8933H52.2667V27.76Z" fill="#0A3D62"/>
<path d="M52.2667 32.0267H37.3333V34.16H52.2667V32.0267Z" fill="#0A3D62"/>
<path d="M52.2667 36.2933H37.3333V38.4267H52.2667V36.2933Z" fill="#0A3D62"/>
<path d="M52.2667 40.56H37.3333V42.6933H52.2667V40.56Z" fill="#0A3D62"/>
<path d="M6.4 48.0267H27.7333V50.16H5.33333C4.74667 50.16 4.26667 49.68 4.26667 49.0933V22.4533H6.4V48.0267Z" fill="#0A3D62"/>
<path d="M52.2667 23.4933H50.1333V25.6267H52.2667V23.4933Z" fill="#0A3D62"/>
<path d="M26.6667 27.76H11.7334V29.8933H26.6667V27.76Z" fill="#0A3D62"/>
<path d="M26.6667 32.0267H14.8V34.16H26.6667V32.0267Z" fill="#0A3D62"/>
<path d="M26.6667 36.2933H11.7334V38.4267H26.6667V36.2933Z" fill="#0A3D62"/>
<path d="M26.6667 40.56H16.4V42.6933H26.6667V40.56Z" fill="#0A3D62"/>
<path d="M26.6667 23.4933H11.7334V25.6267H26.6667V23.4933Z" fill="#0A3D62"/>
<path d="M8.53333 19.2267H29.8667C30.4533 19.2267 30.9333 19.7067 30.9333 20.2933V21.36H33.0667V20.2933C33.0667 19.7067 33.5467 19.2267 34.1333 19.2267H55.4667C56.0533 19.2267 56.5333 19.7067 56.5333 20.2933V45.8933C56.5333 46.48 56.0533 46.96 55.4667 46.96H35.2V48.0267C35.2 49.8 33.7733 51.2267 32 51.2267C30.2267 51.2267 28.8 49.8 28.8 48.0267V46.96H8.53333C7.94666 46.96 7.46666 46.48 7.46666 45.8933V20.2933C7.46666 19.7067 7.94666 19.2267 8.53333 19.2267ZM35.2 44.8267H54.4V21.36H35.2V44.8267ZM30.9333 48.0267C30.9333 48.6133 31.4133 49.0933 32 49.0933C32.5867 49.0933 33.0667 48.6133 33.0667 48.0267V23.4933H30.9333V48.0267ZM9.59999 44.8267H28.8V21.36H9.59999V44.8267Z" fill="#0A3D62"/>
</svg>
