<svg width="64" height="64" viewBox="0 0 64 64" fill="none" xmlns="http://www.w3.org/2000/svg">
<path d="M17.0001 23H47.0001V50L35.0001 61H29.0001L17.0001 50V23Z" fill="#C9D5E2"/>
<path d="M23.0001 45C28.1376 49.5625 35.8626 49.5625 41.0001 45V51C35.8626 55.5625 28.1376 55.5625 23.0001 51V45Z" fill="#FBFDFF"/>
<path d="M25.0001 30L20.0001 37L25.0001 43L30.0001 37L25.0001 30Z" fill="#C9D5E2"/>
<path d="M27 38C26.7375 38 26.475 37.9 26.2875 37.7125C25.575 37 24.4125 37 23.7 37.7125C23.3125 38.1 22.675 38.1 22.2875 37.7125C21.9 37.325 21.9 36.6875 22.2875 36.3C23.7875 34.8 26.2125 34.8 27.7 36.3C28.0875 36.6875 28.0875 37.325 27.7 37.7125C27.525 37.9 27.2625 38 27 38Z" fill="#027226"/>
<path d="M39.0001 30L34.0001 37L39.0001 43L44.0001 37L39.0001 30Z" fill="#C9D5E2"/>
<path d="M41 38C40.7375 38 40.475 37.9 40.2875 37.7125C39.575 37 38.4125 37 37.7 37.7125C37.3125 38.1 36.675 38.1 36.2875 37.7125C35.9 37.325 35.9 36.6875 36.2875 36.3C37.7875 34.8 40.2125 34.8 41.7 36.3C42.0875 36.6875 42.0875 37.325 41.7 37.7125C41.525 37.9 41.2625 38 41 38Z" fill="#027226"/>
<path d="M32.0001 45.75C33.5188 45.75 34.7501 44.5188 34.7501 43C34.7501 41.4812 33.5188 40.25 32.0001 40.25C30.4813 40.25 29.2501 41.4812 29.2501 43C29.2501 44.5188 30.4813 45.75 32.0001 45.75Z" fill="#92A6B7"/>
<path d="M28 29C27.8 29 27.6125 28.9375 27.45 28.8375L25 27.2125L22.55 28.8375C22.0875 29.15 21.475 29.025 21.1625 28.5625C20.85 28.1 20.975 27.4875 21.4375 27.175C21.4375 27.175 21.4375 27.175 21.45 27.175L24.45 25.175C24.7875 24.95 25.225 24.95 25.5625 25.175L28.5625 27.175C29.025 27.4875 29.15 28.1 28.8375 28.5625C28.65 28.8375 28.3375 29 28 29Z" fill="#0296E5"/>
<path d="M42 29C41.8 29 41.6125 28.9375 41.45 28.8375L39 27.2125L36.55 28.8375C36.0875 29.15 35.475 29.025 35.1625 28.5625C34.85 28.1 34.975 27.4875 35.4375 27.175C35.4375 27.175 35.4375 27.175 35.45 27.175L38.45 25.175C38.7875 24.95 39.225 24.95 39.5625 25.175L42.5625 27.175C43.025 27.4875 43.15 28.1 42.8375 28.5625C42.65 28.8375 42.3375 29 42 29Z" fill="#0296E5"/>
<path d="M48.0001 12L44.0001 9L41.6001 12C40.5501 13.325 39.7376 14.8125 39.2001 16.4125L39.0001 17L35.0001 12H29.0001L25.0001 17L24.8126 16.425C24.2751 14.825 23.4626 13.325 22.4126 12.0125L20.0001 9L16.0001 12C17.3001 14.6 17.7751 17.55 17.3626 20.425L17.0001 23H47.0001L46.6376 20.425C46.2251 17.55 46.7001 14.6 48.0001 12Z" fill="#0E82C9"/>
<path d="M17 23C16.675 22.9125 16.35 23 16 23C13.7875 23 12 24.7875 12 27C12 27.1125 12 27.225 12.0125 27.3375C8.8875 28.4375 7.2375 31.8625 8.3375 34.9875C9.0125 36.925 10.6375 38.375 12.6375 38.85C11.45 40.7125 11.9875 43.1875 13.85 44.375C14.7875 44.975 15.925 45.1625 17 44.875V29L17.875 28.125C19.2375 26.7625 20 24.925 20 23H17Z" fill="#92A6B7"/>
<path d="M47.0001 23C47.3251 22.9125 47.6501 23 48.0001 23C50.2126 23 52.0001 24.7875 52.0001 27C52.0001 27.1125 52.0001 27.225 51.9876 27.3375C55.1126 28.4375 56.7626 31.8625 55.6626 34.9875C54.9876 36.925 53.3626 38.375 51.3626 38.85C52.5501 40.7125 52.0126 43.1875 50.1501 44.375C49.2126 44.975 48.0751 45.1625 47.0001 44.875V29L46.1251 28.125C44.7626 26.7625 44.0001 24.925 44.0001 23H47.0001Z" fill="#92A6B7"/>
<path d="M15 13C17.7614 13 20 10.7614 20 8C20 5.23858 17.7614 3 15 3C12.2386 3 10 5.23858 10 8C10 10.7614 12.2386 13 15 13Z" fill="#0E82C9"/>
<path d="M32 13C34.7614 13 37 10.7614 37 8C37 5.23858 34.7614 3 32 3C29.2386 3 27 5.23858 27 8C27 10.7614 29.2386 13 32 13Z" fill="#0E82C9"/>
<path d="M49 13C51.7614 13 54 10.7614 54 8C54 5.23858 51.7614 3 49 3C46.2386 3 44 5.23858 44 8C44 10.7614 46.2386 13 49 13Z" fill="#0E82C9"/>
<path d="M41.4126 44.0875C41.0501 43.925 40.6376 43.9875 40.3376 44.25C35.5876 48.475 28.4251 48.475 23.6626 44.25C23.2501 43.8875 22.6126 43.925 22.2501 44.3375C22.0876 44.525 22.0001 44.7625 22.0001 45V51C22.0001 51.2875 22.1251 51.5625 22.3376 51.75C27.8501 56.65 36.1501 56.65 41.6626 51.75C41.8751 51.5625 42.0001 51.2875 42.0001 51V45C42.0001 44.6 41.7751 44.25 41.4126 44.0875ZM40.0001 50.5375C35.3626 54.375 28.6376 54.375 24.0001 50.5375V47.025C28.8501 50.2125 35.1501 50.2125 40.0001 47.025V50.5375Z" fill="#0A3D62"/>
<path d="M25.0001 44C25.3001 44 25.5751 43.8625 25.7626 43.6375L30.7625 37.6375C31.05 37.2875 31.075 36.7875 30.8125 36.4125L25.8125 29.4125C25.4875 28.9625 24.8626 28.8625 24.4126 29.175C24.3251 29.2375 24.25 29.3125 24.175 29.4125L19.1751 36.4125C18.9126 36.7875 18.9251 37.2875 19.2251 37.6375L24.2251 43.6375C24.4251 43.8625 24.7001 44 25.0001 44ZM25.0001 31.725L28.7375 36.9625L25.0001 41.4375L21.2626 36.95L25.0001 31.725Z" fill="#0A3D62"/>
<path d="M26.2875 37.7125C26.675 38.1 27.3125 38.1 27.7 37.7125C28.0875 37.325 28.0875 36.6875 27.7 36.3C26.2 34.8 23.775 34.8 22.2875 36.3C21.9 36.6875 21.9 37.325 22.2875 37.7125C22.675 38.1 23.3125 38.1 23.7 37.7125C24.425 37 25.575 37 26.2875 37.7125Z" fill="#0A3D62"/>
<path d="M39.8126 29.425C39.4876 28.975 38.8626 28.875 38.4126 29.1875C38.3251 29.25 38.2501 29.325 38.1751 29.425L33.1751 36.425C32.9126 36.8 32.9251 37.3 33.2251 37.65L38.2251 43.65C38.5751 44.075 39.2126 44.1375 39.6376 43.775C39.6876 43.7375 39.7251 43.6875 39.7626 43.65L44.7626 37.65C45.0501 37.3 45.0751 36.8 44.8126 36.425L39.8126 29.425ZM39.0001 41.4375L35.2626 36.95L39.0001 31.7125L42.7376 36.95L39.0001 41.4375Z" fill="#0A3D62"/>
<path d="M36.2875 36.2875C35.9 36.675 35.9 37.3125 36.2875 37.7C36.675 38.0875 37.3125 38.0875 37.7 37.7C38.4125 36.9875 39.575 36.9875 40.2875 37.7C40.675 38.0875 41.3125 38.0875 41.7 37.7C42.0875 37.3125 42.0875 36.675 41.7 36.2875C40.2125 34.8 37.7875 34.8 36.2875 36.2875Z" fill="#0A3D62"/>
<path d="M29.0001 43C29.0001 44.6625 30.3376 46 32.0001 46C33.6626 46 35.0001 44.6625 35.0001 43C35.0001 41.3375 33.6626 40 32.0001 40C30.3501 40 29.0001 41.35 29.0001 43ZM32.0001 42C32.5501 42 33.0001 42.45 33.0001 43C33.0001 43.55 32.5501 44 32.0001 44C31.4501 44 31.0001 43.55 31.0001 43C31.0001 42.45 31.4501 42 32.0001 42Z" fill="#0A3D62"/>
<path d="M22.55 28.8375L25 27.2125L27.45 28.8375C27.9125 29.1375 28.5375 29.0125 28.8375 28.55C29.1375 28.0875 29.0125 27.475 28.5625 27.175L25.5625 25.175C25.225 24.95 24.7875 24.95 24.45 25.175L21.45 27.175C20.9875 27.475 20.8625 28.1 21.1625 28.5625C21.4625 29.0125 22.0875 29.1375 22.55 28.8375Z" fill="#0A3D62"/>
<path d="M36.55 28.8375L39 27.2125L41.45 28.8375C41.9125 29.1375 42.5375 29.0125 42.8375 28.55C43.1375 28.0875 43.0125 27.475 42.5625 27.175L39.5625 25.175C39.225 24.95 38.7875 24.95 38.45 25.175L35.45 27.175C34.9875 27.475 34.8625 28.1 35.1625 28.5625C35.4625 29.0125 36.0875 29.1375 36.55 28.8375Z" fill="#0A3D62"/>
<path d="M11.25 39.4375C10.3875 42.0625 11.8125 44.8875 14.4375 45.75C14.9125 45.9125 15.4125 45.9875 15.9125 46C15.9375 46 15.975 46 16 46V50C16 50.275 16.1125 50.55 16.325 50.7375L28.325 61.7375C28.5125 61.9125 28.75 62 29 62H35C35.25 62 35.4875 61.9125 35.675 61.7375L47.675 50.7375C47.8875 50.55 48 50.275 48 50V46C48.025 46 48.0625 46 48.0875 46C50.85 45.95 53.05 43.675 53 40.9125C52.9875 40.4125 52.9125 39.9125 52.75 39.4375C56.3 37.9125 57.95 33.8 56.4375 30.25C55.7625 28.675 54.5375 27.4 52.9875 26.675C52.8125 24.05 50.625 22.0125 48 22C47.9625 22 47.9125 22 47.8625 22L47.6125 20.2875C47.3125 18.15 47.525 15.9875 48.25 13.95C51.5375 14.3625 54.525 12.025 54.9375 8.73749C55.35 5.44999 53.0125 2.46249 49.725 2.04999C46.4375 1.63749 43.45 3.97499 43.0375 7.26249C42.9875 7.71249 42.975 8.16249 43.025 8.61249L40.8125 11.3875C39.9375 12.4875 39.2125 13.7 38.6625 14.9875L36.3625 12.1125C38.6375 9.69999 38.525 5.89999 36.1125 3.62499C33.7 1.34999 29.9 1.46249 27.625 3.87499C25.45 6.18749 25.45 9.78749 27.625 12.1L25.325 14.975C24.775 13.675 24.05 12.475 23.175 11.375L20.9625 8.59999C21.3125 5.29999 18.9125 2.33749 15.6 1.99999C12.2875 1.66249 9.35004 4.06249 9.00004 7.36249C8.65004 10.6625 11.05 13.625 14.3625 13.9625C14.825 14.0125 15.2875 14 15.7375 13.95C16.4625 15.975 16.675 18.15 16.375 20.2875L16.125 22C16.075 22 16.0375 22 15.9875 22C13.35 22 11.175 24.05 11 26.675C7.50003 28.325 6.01253 32.5 7.66253 36C8.40004 37.5375 9.67503 38.7625 11.25 39.4375ZM46 49.5625L34.6125 60H29.3875L18 49.5625V45C18 44.975 18 44.9625 18 44.9375C18 44.9125 18 44.8875 18 44.875V29.4125L18.5875 28.825C19.8875 27.525 20.725 25.825 20.9375 24H43.0625C43.275 25.825 44.1125 27.525 45.4125 28.825L46 29.4125V44.875C46 44.9 46 44.925 46 44.9375C46 44.9625 46 44.975 46 45V49.5625ZM51 27C51 27.075 51 27.1625 50.9875 27.25C50.95 27.7 51.225 28.125 51.65 28.275C54.25 29.1875 55.625 32.0375 54.7125 34.65C54.15 36.2625 52.8 37.475 51.1375 37.8625C50.6 37.9875 50.2625 38.525 50.3875 39.0625C50.4125 39.175 50.4625 39.275 50.525 39.375C51.425 40.775 51.0125 42.625 49.625 43.5125C49.1625 43.8125 48.6125 43.975 48.0625 43.9875C48.05 43.9875 48.025 43.9875 48.0125 43.9875V29C48.0125 28.7375 47.9125 28.475 47.725 28.2875L46.85 27.4125C45.925 26.4875 45.3125 25.2875 45.1 24H48C49.65 24 51 25.35 51 27ZM49 3.99999C51.2125 3.99999 53 5.78749 53 7.99999C53 10.2125 51.2125 12 49 12C46.7875 12 45 10.2125 45 7.99999C45 5.78749 46.7875 3.99999 49 3.99999ZM32 3.99999C34.2125 3.99999 36 5.78749 36 7.99999C36 10.2125 34.2125 12 32 12C29.7875 12 28 10.2125 28 7.99999C28 5.78749 29.7875 3.99999 32 3.99999ZM11 7.99999C11 5.78749 12.7875 3.99999 15 3.99999C17.2125 3.99999 19 5.78749 19 7.99999C19 10.2125 17.2125 12 15 12C12.7875 12 11 10.2125 11 7.99999ZM20.25 10.9125L21.625 12.6375C22.6125 13.8625 23.3625 15.25 23.8625 16.75L24.05 17.325C24.225 17.85 24.7875 18.1375 25.3125 17.9625C25.5 17.9 25.6625 17.7875 25.775 17.6375L29.225 13.325C30.9625 14.2375 33.0375 14.2375 34.775 13.325L38.225 17.6375C38.575 18.075 39.2 18.1375 39.625 17.7875C39.775 17.6625 39.8875 17.5 39.95 17.325L40.1375 16.75C40.6375 15.2625 41.3875 13.8625 42.375 12.6375L43.75 10.9125C44.3375 11.975 45.25 12.8375 46.3375 13.375C45.5375 15.6875 45.3 18.15 45.6375 20.5625L45.8375 21.9875H18.15L18.35 20.55C18.7 18.125 18.45 15.6625 17.65 13.3625C18.75 12.8375 19.65 11.975 20.25 10.9125ZM12.35 28.2875C12.775 28.1375 13.05 27.7125 13.0125 27.2625C13 27.175 13 27.0875 13 27.0125C13 25.3625 14.35 24.0125 16 24.0125H18.925C18.7125 25.3125 18.1 26.5 17.175 27.425L16.3 28.3C16.1125 28.4875 16.0125 28.7375 16.0125 29.0125V44.0125C16 44.0125 15.975 44.0125 15.9625 44.0125C14.3125 43.9875 12.9875 42.625 13.0125 40.9625C13.025 40.4 13.1875 39.8625 13.4875 39.4C13.7875 38.9375 13.65 38.3125 13.1875 38.0125C13.0875 37.95 12.9875 37.9 12.875 37.875C10.1875 37.25 8.51253 34.55 9.15003 31.8625C9.52503 30.2 10.7375 28.85 12.35 28.2875Z" fill="#0A3D62"/>
</svg>
