<svg width="18" height="18" viewBox="0 0 18 18" fill="none" xmlns="http://www.w3.org/2000/svg">
<path d="M5.13549 11.3208H5.95367L6.23671 11.0377C5.22811 9.86966 4.62094 8.35163 4.62094 6.68955C4.62094 2.99485 7.6158 0 11.3104 0C15.0051 0 18 2.99485 18 6.68955C18 10.3843 15.0051 13.3791 11.3104 13.3791C9.64837 13.3791 8.13034 12.7719 6.96226 11.7685L6.67923 12.0515V12.8645L1.53346 18L0 16.4665L5.13549 11.3208ZM11.3104 11.3208C13.8679 11.3208 15.9417 9.247 15.9417 6.68955C15.9417 4.13211 13.8679 2.05834 11.3104 2.05834C8.753 2.05834 6.67923 4.13211 6.67923 6.68955C6.67923 9.247 8.753 11.3208 11.3104 11.3208Z" fill="#0A3D62"/>
</svg>
